<?xml version="1.0" encoding="utf-8"?>
<!-- Generator: Adobe Illustrator 15.0.0, SVG Export Plug-In . SVG Version: 6.00 Build 0)  -->
<!DOCTYPE svg PUBLIC "-//W3C//DTD SVG 1.1//EN" "http://www.w3.org/Graphics/SVG/1.1/DTD/svg11.dtd">
<svg version="1.1" id="Ebene_1" opacity="0.15" xmlns="http://www.w3.org/2000/svg" xmlns:xlink="http://www.w3.org/1999/xlink"
	 x="0px" y="0px" width="380px" height="320px" viewBox="0.5 792.5 380 320" enable-background="new 0.5 792.5 380 320"
	 xml:space="preserve">
<path d="M240.339,835.629c22.603-6.043,46.236,7.559,52.358,30.15l2.943,10.914l10.781,40.041
	c6.297,5.104,13.809,13.871,19.842,18.705l-16.822-62.461l-2.939-10.918c-8.154-30.279-39.601-48.381-69.878-40.229L240.339,835.629
	z"/>
<rect x="126.352" y="855.145" transform="matrix(0.9656 -0.26 0.26 0.9656 -222.8759 68.6387)" width="43.346" height="43.348"/>
<rect x="145.533" y="799.829" transform="matrix(0.9656 -0.26 0.26 0.9656 -206.4502 69.9119)" width="31.017" height="31.014"/>
<rect x="87.579" y="891.25" transform="matrix(0.9656 -0.26 0.26 0.9656 -231.7094 57.3192)" width="26.441" height="26.439"/>
<rect x="108.142" y="804.062" transform="matrix(0.9656 -0.2601 0.2601 0.9656 -207.1454 58.0912)" width="15.644" height="15.65"/>
<rect x="90.762" y="851.646" transform="matrix(0.9656 -0.26 0.26 0.9656 -220.0397 55.1782)" width="15.65" height="15.652"/>
<path d="M60.5,1054.251c-10.271,3.797-20.335,8.071-29.953,13.099L60.5,983.289V957.5h10.401c2.094-3.164,4.834-5.706,8.753-6.762
	l0.011-0.018c0.678-0.102,1.354-0.195,2.034-0.301l-3.687-13.691c-16.229,3.689-21.782,18.148-27.278,31.982L4.497,1095.771
	c10.505-6.379,20.654-13.006,32.031-17.742c7.894-3.28,15.901-6.321,23.972-9.201V1054.251z"/>
<path d="M260.432,915.256c6.825,5.645,13.705,11.232,20.577,16.824c3.327,2.704,6.718,5.623,10.149,8.672
	c6.557,1.681,15.302,3.452,26.965,5.189l-47.937-40.775c-10.196-8.406-21.874-14.932-35.396-10.656l3.644,13.527
	C246.91,905.158,254.111,910.025,260.432,915.256z"/>
<path d="M231.693,951.51L219.7,906.967l-54.814,14.76l9.587,35.604C199.35,956.713,217.888,954.453,231.693,951.51z"/>
<polygon points="149.325,957.5 155.715,955.779 146.123,920.156 110.502,929.746 117.975,957.5 "/>
</svg>
