<svg opacity=".15" xmlns="http://www.w3.org/2000/svg" width="380" height="320" viewBox="0.5 792.5 380 320"><path d="M240.34 835.63c22.602-6.044 46.235 7.558 52.357 30.15l2.943 10.913 10.78 40.04c6.298 5.105 13.81 13.872 19.843 18.706l-16.822-62.462-2.938-10.918c-8.154-30.28-39.6-48.38-69.878-40.23l3.715 13.8zM121.467 861.515l41.855-11.27 11.27 41.857-41.854 11.27zM142.032 804.388l29.95-8.064 8.064 29.947-29.95 8.065zM84.582 895.14l25.53-6.875 6.875 25.53-25.53 6.874zM106.413 806.366l15.106-4.07 4.07 15.112-15.106 4.07zM89.028 853.93l15.112-4.07 4.07 15.114-15.112 4.07zM60.5 1054.25c-10.27 3.798-20.335 8.072-29.953 13.1L60.5 983.29V957.5h10.4c2.095-3.164 4.835-5.706 8.754-6.762l.01-.018c.68-.102 1.355-.195 2.035-.3l-3.688-13.692c-16.23 3.69-21.782 18.148-27.278 31.982L4.497 1095.77c10.505-6.378 20.654-13.005 32.03-17.74 7.895-3.28 15.902-6.322 23.973-9.202v-14.577zM260.432 915.256c6.825 5.645 13.705 11.232 20.577 16.824 3.326 2.704 6.717 5.623 10.148 8.672 6.557 1.68 15.302 3.452 26.965 5.19l-47.937-40.776c-10.196-8.406-21.874-14.932-35.396-10.656l3.644 13.527c8.476-2.88 15.677 1.988 21.998 7.22zM231.693 951.51L219.7 906.967l-54.814 14.76 9.587 35.604c24.877-.617 43.415-2.877 57.22-5.82zM149.325 957.5l6.39-1.72-9.592-35.624-35.62 9.59 7.472 27.754"/></svg>