<?xml version="1.0" encoding="utf-8"?>
<!-- Generator: Adobe Illustrator 15.0.0, SVG Export Plug-In . SVG Version: 6.00 Build 0)  -->
<!DOCTYPE svg PUBLIC "-//W3C//DTD SVG 1.1//EN" "http://www.w3.org/Graphics/SVG/1.1/DTD/svg11.dtd">
<svg version="1.1" id="Ebene_1" xmlns="http://www.w3.org/2000/svg" xmlns:xlink="http://www.w3.org/1999/xlink" x="0px" y="0px"
	 width="720px" height="105.5px" viewBox="0 0 720 105.5" enable-background="new 0 0 720 105.5" xml:space="preserve">
<g>
	<path fill="#FFFFFF" d="M152.806,79.064V18.607h23.279c18.797,0,28.195,10.083,28.195,30.25c0,20.139-9.398,30.208-28.195,30.208
		H152.806z M176.085,67.021c10.715-0.025,16.086-6.082,16.112-18.165c-0.026-12.084-5.397-18.126-16.112-18.126h-11.197v36.291
		H176.085z"/>
	<path fill="#FFFFFF" d="M210.983,25.072c1.073-1.087,2.523-1.631,4.35-1.631c1.934,0,3.438,0.544,4.511,1.631
		c1.074,1.087,1.612,2.438,1.612,4.048c0,1.611-0.538,2.953-1.612,4.027c-1.073,1.074-2.551,1.612-4.429,1.612
		c-1.881,0-3.359-0.538-4.432-1.612c-1.075-1.074-1.611-2.416-1.611-4.027C209.372,27.51,209.908,26.159,210.983,25.072
		 M221.053,38.744h-11.278v40.32h11.278V38.744z"/>
	<path fill="#FFFFFF" d="M265.976,39.994v35.848c0,5.641-1.678,10.354-5.034,14.139c-3.358,3.789-7.587,5.787-12.688,6.002
		l-2.417,0.24c-7.788-0.16-13.83-2.389-18.125-6.686l5.236-6.041c2.954,2.148,6.538,3.357,10.753,3.625
		c4.296,0,7.203-1.007,8.722-3.021c1.515-2.014,2.274-4.229,2.274-6.646v-2.014c-3.007,2.418-6.498,3.625-10.471,3.625
		c-6.177,0-10.808-1.813-13.897-5.437c-3.089-3.625-4.631-8.524-4.631-14.702c0-5.906,1.679-10.74,5.035-14.5
		c3.355-3.76,8.121-5.64,14.298-5.64c4.564,0.268,7.788,1.492,9.666,3.666v-3.666L265.976,39.994z M254.697,62.551v-6.525
		c-0.536-4.512-3.356-7.155-8.458-7.934c-6.713,0.24-10.337,3.583-10.874,10.026c0.267,7.522,3.892,11.415,10.874,11.683
		C251.34,68.996,254.161,66.579,254.697,62.551"/>
	<path fill="#FFFFFF" d="M273.269,25.072c1.074-1.087,2.524-1.631,4.35-1.631c1.933,0,3.435,0.544,4.511,1.631
		c1.072,1.087,1.611,2.438,1.611,4.048c0,1.611-0.539,2.953-1.611,4.027c-1.076,1.074-2.553,1.612-4.432,1.612
		c-1.878,0-3.355-0.538-4.429-1.612c-1.074-1.074-1.612-2.416-1.612-4.027C271.657,27.51,272.195,26.159,273.269,25.072
		 M283.338,38.744H272.06v40.32h11.278V38.744z"/>
	<polygon fill="#FFFFFF" points="336.364,79.064 287.989,79.064 288.027,75.037 316.183,29.925 288.027,29.925 287.989,18.646 
		336.364,18.646 336.364,23.079 308.087,67.785 336.364,67.785 	"/>
	<path fill="#FFFFFF" d="M339.776,58.926c0-5.906,1.879-10.739,5.64-14.5c3.759-3.759,8.593-5.64,14.5-5.64
		c5.907,0,10.607,1.881,14.097,5.64c3.49,3.761,5.236,8.594,5.236,14.5v4.029h-27.793c0.269,2.148,1.209,3.824,2.821,5.034
		c1.612,1.207,3.489,1.812,5.639,1.812c3.759,0,7.115-1.074,10.069-3.221l6.445,6.443c-2.953,4.029-8.457,6.041-16.514,6.041
		c-5.907,0-10.741-1.88-14.5-5.639C341.655,69.666,339.776,64.834,339.776,58.926 M365.555,49.864
		c-1.61-1.21-3.489-1.814-5.638-1.814c-2.15,0-4.027,0.604-5.639,1.814c-1.612,1.208-2.416,2.886-2.416,5.034h16.112
		C367.974,52.75,367.166,51.072,365.555,49.864"/>
	<path fill="#FFFFFF" d="M385.559,25.072c1.075-1.087,2.523-1.631,4.351-1.631c1.933,0,3.437,0.544,4.513,1.631
		c1.073,1.087,1.61,2.438,1.61,4.048c0,1.611-0.537,2.953-1.61,4.027c-1.076,1.074-2.554,1.612-4.432,1.612
		c-1.881,0-3.356-0.538-4.432-1.612c-1.076-1.074-1.611-2.416-1.611-4.027C383.947,27.51,384.482,26.159,385.559,25.072
		 M395.63,38.744h-11.278v40.32h11.278V38.744z"/>
	<path fill="#FFFFFF" d="M419.887,79.064c-4.566,0-8.191-1.273-10.874-3.824c-2.689-2.552-4.029-5.842-4.029-9.869V47.929h-6.042
		v-9.103h6.042V27.912l11.317-1.208v12.122h6.041v9.103h-6.041V63.76c0,2.148,0.451,3.658,1.35,4.531
		c0.902,0.873,2.061,1.309,3.484,1.309c0.43,0,1.438-0.174,3.023-0.523l2.375,8.096C424.602,78.435,422.385,79.064,419.887,79.064"
		/>
	<path fill="#FFFFFF" d="M452.962,39.914c2.093,0.913,4.054,2.269,5.881,4.068l-6.283,7.09c-1.828-2.178-4.108-3.264-6.849-3.264
		c-2.713,0-4.525,0.505-5.438,1.511c-0.912,1.008-0.912,1.92,0,2.739c0.912,0.818,2.725,1.496,5.438,2.033
		c4.001,0.379,7.277,1.518,9.828,3.424c2.552,1.908,3.828,5.223,3.828,9.949c0,3.813-1.506,6.768-4.511,8.861
		c-3.009,2.096-6.513,3.143-10.515,3.143c-3.813,0-6.986-0.545-9.526-1.631c-2.538-1.088-4.717-2.545-6.544-4.371l6.242-7.049
		c1.827,2.174,4.659,3.438,8.498,3.784c3.088,0,5.082-0.502,5.98-1.509c0.902-1.006,1.035-2.014,0.406-3.021
		c-0.631-1.008-2.76-1.684-6.387-2.033c-3.275-0.377-6.277-1.383-9.002-3.021s-4.086-4.725-4.086-9.265
		c0-4.16,1.548-7.336,4.648-9.525c3.102-2.188,6.291-3.282,9.567-3.282C447.927,38.545,450.865,39.001,452.962,39.914"/>
	<path fill="#FFFFFF" d="M468.09,74.029c-4.03-3.354-6.041-7.718-6.041-13.09v-4.025c0-5.371,2.011-9.735,6.041-13.092
		c4.027-3.357,8.74-5.036,14.137-5.036c6.443,0,11.803,2.284,16.073,6.848l-8.056,6.042c-2.418-2.416-5.103-3.625-8.057-3.625
		c-2.688,0-5.035,1.075-7.049,3.223c-2.016,2.148-3.021,4.7-3.021,7.652c0,2.955,0.94,5.504,2.821,7.654
		c1.878,2.146,4.294,3.221,7.249,3.221c2.954,0,5.639-1.209,8.057-3.625l8.056,6.043c-4.298,4.564-9.669,6.846-16.112,6.846
		C476.816,79.064,472.117,77.387,468.09,74.029"/>
	<path fill="#FFFFFF" d="M513.335,51.838v27.227h-11.279V18.647h11.279v23.765c2.71-2.418,5.935-3.626,9.665-3.626
		c5.104,0,8.998,1.545,11.684,4.632c2.684,3.088,4.027,6.647,4.027,10.674v24.973h-11.278V56.913c0-2.687-0.671-4.769-2.014-6.244
		c-1.343-1.478-3.369-2.256-6.082-2.337C517,48.493,515,49.662,513.335,51.838"/>
	<path fill="#FFFFFF" d="M555.354,43.217c2.871-2.954,6.378-4.431,10.514-4.431c1.316,0,2.563,0.109,3.746,0.322l-1.773,11.118
		c-1.316-1.181-3.197-1.813-5.64-1.894c-2.737,0.188-5.022,2.176-6.847,5.96v24.772h-11.278V39.956l11.278-1.212V43.217z"/>
	<path fill="#FFFFFF" d="M574.066,25.072c1.072-1.087,2.522-1.631,4.349-1.631c1.935,0,3.438,0.544,4.513,1.631
		c1.072,1.087,1.611,2.438,1.611,4.048c0,1.611-0.539,2.953-1.611,4.027c-1.074,1.074-2.553,1.612-4.431,1.612
		c-1.882,0-3.358-0.538-4.431-1.612c-1.074-1.074-1.612-2.416-1.612-4.027C572.454,27.51,572.992,26.159,574.066,25.072
		 M584.137,38.744h-11.278v40.32h11.278V38.744z"/>
	<path fill="#FFFFFF" d="M604.354,46.842v32.223h-11.317V46.842h-6.045V37.74h6.045v-5.397c0-4.028,1.342-7.318,4.028-9.871
		c2.681-2.549,6.309-3.825,10.87-3.825c4.837,0,8.596,1.344,11.279,4.028l-6.002,6.687c-0.75-0.833-2.092-1.25-4.027-1.25
		c-1.422,0-2.582,0.437-3.48,1.309c-0.904,0.873-1.351,2.384-1.351,4.532v3.787"/>
	<path fill="#FFFFFF" d="M629.325,79.064c-4.564,0-8.19-1.273-10.874-3.824c-2.688-2.552-4.028-5.842-4.028-9.869V46.848h-25.916
		v-9.102h25.916v-1.524l11.315-11.158v12.682h6.043v9.102h-6.043V63.76c0,2.148,0.453,3.658,1.351,4.531
		c0.901,0.873,2.062,1.309,3.485,1.309c0.43,0,1.436-0.174,3.021-0.523l2.375,8.096C634.041,78.435,631.825,79.064,629.325,79.064"
		/>
	<path fill="#FFFFFF" d="M636.015,58.926c0-5.906,1.877-10.739,5.64-14.5c3.758-3.759,8.592-5.64,14.502-5.64
		c5.906,0,10.604,1.881,14.095,5.64c3.491,3.761,5.237,8.594,5.237,14.5v4.029h-27.795c0.271,2.148,1.209,3.824,2.823,5.034
		c1.61,1.207,3.49,1.812,5.64,1.812c3.758,0,7.113-1.074,10.067-3.221l6.446,6.443c-2.955,4.029-8.461,6.041-16.514,6.041
		c-5.91,0-10.744-1.88-14.502-5.639C637.892,69.666,636.015,64.834,636.015,58.926 M661.791,49.864
		c-1.608-1.21-3.49-1.814-5.635-1.814c-2.149,0-4.029,0.604-5.64,1.814c-1.614,1.208-2.419,2.886-2.419,5.034h16.111
		C664.209,52.75,663.404,51.072,661.791,49.864"/>
	<path fill="#FFFFFF" d="M692.104,53.447v25.617h-11.278V39.956l11.278-1.211v3.668c2.715-2.419,5.937-3.627,9.667-3.627
		c5.104,0,8.998,1.545,11.683,4.633s4.026,6.647,4.026,10.673v24.973h-11.277v-22.15c0-2.688-0.671-4.77-2.014-6.245
		c-1.342-1.479-3.37-2.256-6.082-2.337C695.77,48.494,693.77,50.2,692.104,53.447"/>
	<path fill="#FFFFFF" d="M272.298,101.461V88.729h4.904c3.958,0,5.938,2.123,5.938,6.371c0,4.24-1.98,6.361-5.938,6.361H272.298z
		 M277.202,98.926c2.256-0.006,3.387-1.283,3.393-3.826c-0.006-2.545-1.137-3.817-3.393-3.817h-2.358v7.644H277.202z"/>
	<path fill="#FFFFFF" d="M283.986,101.461l5.091-12.727h2.544l5.082,12.718l-2.706,0.009l-0.765-1.949h-5.769l-0.762,1.949H283.986z
		 M290.417,92.129l-1.934,4.838h3.816L290.417,92.129z"/>
	<path fill="#FFFFFF" d="M305.165,89.16c0.649,0.283,1.259,0.707,1.824,1.272l-1.696,1.696c-0.566-0.678-1.358-1.018-2.376-1.018
		c-1.018,0-1.668,0.242-1.951,0.721c-0.281,0.481-0.281,0.892,0,1.231c0.283,0.339,0.933,0.593,1.951,0.762
		c1.076,0.113,2.051,0.468,2.926,1.062c0.878,0.595,1.315,1.541,1.315,2.842c0,1.02-0.468,1.896-1.405,2.628
		c-0.934,0.737-2.025,1.104-3.27,1.104c-1.18,0-2.168-0.17-2.96-0.508c-0.792-0.342-1.471-0.791-2.034-1.357l1.694-1.697
		c0.568,0.678,1.528,1.075,2.886,1.188c1.132,0,1.837-0.24,2.117-0.721c0.278-0.48,0.278-0.962,0-1.439
		c-0.28-0.484-0.985-0.78-2.117-0.893c-1.017-0.113-1.951-0.426-2.8-0.934c-0.849-0.51-1.272-1.387-1.272-2.629
		c0-1.127,0.481-2.03,1.446-2.711c0.966-0.682,1.956-1.025,2.972-1.025C303.599,88.734,304.514,88.879,305.165,89.16"/>
	<path fill="#FFFFFF" d="M315.196,101.461V88.729h4.903c3.959,0,5.938,2.123,5.938,6.371c0,4.24-1.979,6.361-5.938,6.361H315.196z
		 M320.099,98.926c2.256-0.006,3.389-1.283,3.393-3.826c-0.004-2.545-1.137-3.817-3.393-3.817h-2.357v7.644H320.099z"/>
	<polygon fill="#FFFFFF" points="328.406,101.461 328.406,88.744 337.754,88.734 337.754,91.111 330.952,91.111 330.952,93.825 
		336.05,93.825 336.05,96.193 330.952,96.193 330.952,99.085 337.738,99.085 337.738,101.461 	"/>
	<path fill="#FFFFFF" d="M342.22,88.734v7.381c0,0.965,0.282,1.67,0.85,2.123c0.564,0.451,1.271,0.68,2.119,0.68
		c0.85,0,1.555-0.229,2.12-0.68c0.567-0.453,0.849-1.158,0.849-2.123v-7.381h2.545v8.061c0,1.301-0.523,2.406-1.57,3.311
		c-1.045,0.904-2.36,1.355-3.944,1.355s-2.899-0.451-3.944-1.355c-1.047-0.904-1.571-2.01-1.571-3.311v-8.061H342.22z"/>
	<polygon fill="#FFFFFF" points="363.327,88.734 363.327,91.111 359.084,91.111 359.084,101.461 356.538,101.461 356.538,91.111 
		352.297,91.111 352.297,88.734 	"/>
	<path fill="#FFFFFF" d="M371.756,89.16c0.648,0.283,1.258,0.707,1.822,1.272l-1.696,1.696c-0.565-0.678-1.356-1.018-2.374-1.018
		c-1.02,0-1.67,0.242-1.952,0.721c-0.281,0.481-0.281,0.892,0,1.231c0.282,0.339,0.933,0.593,1.952,0.762
		c1.072,0.113,2.051,0.468,2.928,1.062c0.874,0.595,1.313,1.541,1.313,2.842c0,1.02-0.469,1.896-1.404,2.628
		c-0.938,0.737-2.023,1.104-3.268,1.104c-1.184,0-2.172-0.17-2.963-0.508c-0.791-0.342-1.468-0.791-2.035-1.357l1.694-1.697
		c0.568,0.678,1.528,1.075,2.886,1.188c1.131,0,1.836-0.24,2.117-0.721c0.279-0.48,0.279-0.962,0-1.439
		c-0.281-0.484-0.986-0.78-2.117-0.893c-1.018-0.113-1.951-0.426-2.799-0.934c-0.847-0.51-1.273-1.387-1.273-2.629
		c0-1.127,0.481-2.03,1.447-2.711c0.965-0.682,1.955-1.025,2.974-1.025C370.188,88.734,371.106,88.879,371.756,89.16"/>
	<path fill="#FFFFFF" d="M376.833,99.633c-1.22-1.212-1.827-2.732-1.827-4.56c0.006-1.787,0.617-3.289,1.833-4.507
		c1.215-1.221,2.722-1.832,4.521-1.832c1.815,0,3.373,0.568,4.674,1.699l-1.696,1.857c-0.864-0.68-1.858-1.016-2.978-1.016
		c-1.141,0.002-2.061,0.359-2.76,1.066c-0.701,0.707-1.05,1.613-1.05,2.715c0.007,1.182,0.36,2.121,1.06,2.816
		c0.702,0.695,1.625,1.045,2.767,1.045c1.144,0,2.129-0.338,2.961-1.01l1.696,1.855c-1.295,1.133-2.853,1.697-4.674,1.697
		C379.561,101.456,378.054,100.846,376.833,99.633"/>
	<polygon fill="#FFFFFF" points="387.989,101.461 387.989,88.734 390.534,88.734 390.534,93.825 396.462,93.825 396.462,88.729 
		399.008,88.729 399.008,101.452 396.462,101.461 396.462,96.202 390.534,96.202 390.534,101.461 	"/>
	<polygon fill="#FFFFFF" points="401.639,101.461 401.639,88.744 410.985,88.734 410.985,91.111 404.183,91.111 404.183,93.825 
		409.282,93.825 409.282,96.193 404.183,96.193 404.183,99.085 410.969,99.085 410.969,101.461 	"/>
	<path fill="#FFFFFF" d="M419.313,101.461V88.729h4.903c3.956,0,5.938,2.123,5.938,6.371c0,4.24-1.982,6.361-5.938,6.361H419.313z
		 M424.216,98.926c2.256-0.006,3.386-1.283,3.394-3.826c-0.008-2.545-1.138-3.817-3.394-3.817h-2.357v7.644H424.216z"/>
	<rect x="432.529" y="88.729" fill="#FFFFFF" width="2.535" height="12.732"/>
	<path fill="#FFFFFF" d="M438.747,99.633c-1.216-1.212-1.825-2.732-1.825-4.56c0.004-1.787,0.615-3.289,1.831-4.507
		c1.214-1.221,2.723-1.832,4.521-1.832c1.817,0,3.373,0.568,4.674,1.699l-1.694,1.857c-0.866-0.68-1.86-1.016-2.979-1.016
		c-1.142,0.002-2.065,0.359-2.76,1.066c-0.701,0.707-1.047,1.613-1.047,2.715c0.005,1.182,0.357,2.121,1.059,2.816
		c0.7,0.695,1.623,1.045,2.765,1.045c0.917,0,1.618-0.182,2.114-0.545v-2.18l-1.698,0.009v-2.377h4.241v5.938
		c-1.295,1.133-2.852,1.697-4.674,1.697C441.476,101.456,439.967,100.846,438.747,99.633"/>
	<rect x="450.434" y="88.729" fill="#FFFFFF" width="2.539" height="12.732"/>
	<polygon fill="#FFFFFF" points="465.502,88.734 465.502,91.111 461.261,91.111 461.261,101.461 458.716,101.461 458.716,91.111 
		454.474,91.111 454.474,88.734 	"/>
	<path fill="#FFFFFF" d="M464.643,101.461l5.088-12.727h2.547l5.078,12.718l-2.705,0.009l-0.764-1.949h-5.766l-0.764,1.949H464.643z
		 M471.074,92.129l-1.938,4.838h3.818L471.074,92.129z"/>
	<polygon fill="#FFFFFF" points="481.408,88.734 481.408,99.086 488.195,99.086 488.195,101.461 478.861,101.461 478.861,88.734 	
		"/>
	<polygon fill="#FFFFFF" points="489.764,101.461 489.764,88.744 499.109,88.734 499.109,91.111 492.306,91.111 492.306,93.825 
		497.403,93.825 497.403,96.193 492.306,96.193 492.306,99.085 499.092,99.085 499.092,101.461 	"/>
	<polygon fill="#FFFFFF" points="517.41,101.461 507.223,101.461 507.229,100.611 513.16,91.111 507.229,91.111 507.223,88.734 
		517.41,88.734 517.41,89.67 511.456,99.085 517.41,99.085 	"/>
	<polygon fill="#FFFFFF" points="519.514,101.461 519.514,88.744 528.86,88.734 528.86,91.111 522.059,91.111 522.059,93.825 
		527.157,93.825 527.157,96.193 522.059,96.193 522.059,99.085 528.842,99.085 528.842,101.461 	"/>
	<rect x="531.148" y="88.729" fill="#FFFFFF" width="2.539" height="12.732"/>
	<polygon fill="#FFFFFF" points="546.22,88.734 546.22,91.111 541.977,91.111 541.977,101.461 539.433,101.461 539.433,91.111 
		535.191,91.111 535.191,88.734 	"/>
	<path fill="#FFFFFF" d="M554.648,89.16c0.65,0.283,1.256,0.707,1.822,1.272l-1.696,1.696c-0.566-0.678-1.358-1.018-2.378-1.018
		c-1.016,0-1.668,0.242-1.949,0.721c-0.281,0.481-0.281,0.892,0,1.231c0.281,0.339,0.934,0.593,1.949,0.762
		c1.074,0.113,2.055,0.468,2.929,1.062c0.876,0.595,1.315,1.541,1.315,2.842c0,1.02-0.467,1.896-1.402,2.628
		c-0.938,0.737-2.028,1.104-3.273,1.104c-1.182,0-2.166-0.17-2.959-0.508c-0.791-0.342-1.472-0.791-2.037-1.357l1.699-1.697
		c0.563,0.678,1.527,1.075,2.883,1.188c1.129,0,1.836-0.24,2.115-0.721c0.28-0.48,0.28-0.962,0-1.439
		c-0.279-0.484-0.986-0.78-2.115-0.893c-1.018-0.113-1.953-0.426-2.801-0.934c-0.848-0.51-1.271-1.387-1.271-2.629
		c0-1.127,0.481-2.03,1.445-2.711c0.963-0.682,1.955-1.025,2.977-1.025C553.08,88.734,553.996,88.879,554.648,89.16"/>
	<path fill="#FFFFFF" d="M559.725,99.633c-1.219-1.212-1.826-2.732-1.826-4.56c0.004-1.787,0.615-3.289,1.832-4.507
		c1.215-1.221,2.722-1.832,4.52-1.832c1.817,0,3.375,0.568,4.674,1.699l-1.694,1.857c-0.864-0.68-1.858-1.016-2.979-1.016
		c-1.141,0.002-2.061,0.359-2.762,1.066c-0.697,0.707-1.047,1.613-1.047,2.715c0.008,1.182,0.359,2.121,1.061,2.816
		c0.703,0.695,1.625,1.045,2.766,1.045c1.145,0,2.131-0.338,2.962-1.01l1.694,1.855c-1.293,1.133-2.851,1.697-4.674,1.697
		C562.452,101.456,560.945,100.846,559.725,99.633"/>
	<polygon fill="#FFFFFF" points="570.88,101.461 570.88,88.734 573.427,88.734 573.427,93.825 579.355,93.825 579.355,88.729 
		581.899,88.729 581.899,101.452 579.355,101.461 579.355,96.202 573.427,96.202 573.427,101.461 	"/>
	<path fill="#FFFFFF" d="M592.201,95.912l3.174,5.549h-2.918l-3.047-5.258h-2.322v5.258h-2.547V88.734h5.55
		c2.97,0,4.454,1.225,4.454,3.667C594.545,94.238,593.764,95.408,592.201,95.912 M587.088,93.825h3.563
		c1.023-0.017,1.549-0.481,1.579-1.397c-0.03-0.838-0.546-1.273-1.552-1.307h-3.59V93.825z"/>
	<rect x="596.699" y="88.729" fill="#FFFFFF" width="2.535" height="12.732"/>
	<polygon fill="#FFFFFF" points="601.779,101.461 601.779,88.734 610.73,88.734 610.73,91.111 604.325,91.111 604.325,93.825 
		609.048,93.825 609.048,96.193 604.325,96.193 604.325,101.461 	"/>
	<polygon fill="#FFFFFF" points="622.904,88.734 622.904,91.111 618.662,91.111 618.662,101.461 616.118,101.461 616.118,91.111 
		611.876,91.111 611.876,88.734 	"/>
	<polygon fill="#FFFFFF" points="624.37,101.461 624.37,88.744 633.718,88.734 633.718,91.111 626.914,91.111 626.914,93.825 
		632.014,93.825 632.014,96.193 626.914,96.193 626.914,99.085 633.699,99.085 633.699,101.461 	"/>
	<polygon fill="#FFFFFF" points="635.955,101.461 635.955,88.734 636.803,88.734 644.775,96.711 644.775,88.734 647.322,88.734 
		647.322,101.461 646.388,101.461 638.499,93.572 638.499,101.461 	"/>
	<path fill="#FFFFFF" d="M648.846,101.461l5.092-12.727h2.545l5.08,12.718l-2.705,0.009l-0.764-1.949h-5.768l-0.764,1.949H648.846z
		 M655.278,92.129l-1.937,4.838h3.819L655.278,92.129z"/>
	<path fill="#FFFFFF" d="M670.713,95.912l3.17,5.549h-2.916l-3.045-5.258h-2.324v5.258h-2.545V88.734h5.547
		c2.969,0,4.453,1.225,4.453,3.667C673.053,94.238,672.272,95.408,670.713,95.912 M665.598,93.825h3.561
		c1.024-0.017,1.551-0.481,1.578-1.397c-0.027-0.838-0.546-1.273-1.552-1.307h-3.587V93.825z"/>
	<path fill="#FFFFFF" d="M676.209,99.633c-1.219-1.212-1.826-2.732-1.826-4.56c0.004-1.787,0.613-3.289,1.831-4.507
		c1.216-1.221,2.723-1.832,4.521-1.832c1.816,0,3.373,0.568,4.674,1.699l-1.696,1.857c-0.864-0.68-1.856-1.016-2.978-1.016
		c-1.142,0.002-2.06,0.359-2.763,1.066c-0.696,0.707-1.047,1.613-1.047,2.715c0.009,1.182,0.36,2.121,1.062,2.816
		s1.623,1.045,2.767,1.045s2.128-0.338,2.959-1.01l1.696,1.855c-1.295,1.133-2.852,1.697-4.674,1.697
		C678.937,101.456,677.429,100.846,676.209,99.633"/>
	<polygon fill="#FFFFFF" points="687.365,101.461 687.365,88.734 689.909,88.734 689.909,93.825 695.84,93.825 695.84,88.729 
		698.384,88.729 698.384,101.452 695.84,101.461 695.84,96.202 689.909,96.202 689.909,101.461 	"/>
	<rect x="701.021" y="88.729" fill="#FFFFFF" width="2.537" height="12.732"/>
	<polygon fill="#FFFFFF" points="707.702,88.734 711.316,98.061 714.996,88.734 717.71,88.734 712.63,101.461 710.085,101.461 
		704.986,88.734 	"/>
	<path fill="#FFFFFF" d="M39.57,46.189c0.224,0.026,0.448,0.053,0.673,0.079v-4.676c-5.484-0.217-8.492,3.911-11.428,7.845
		L3.197,85.93c3.892-1.131,7.692-2.371,11.72-2.902c9.213-1.213,18.584-1.578,27.868-1.577v-0.001
		c7.796,0.01,16.473-0.301,23.565,3.477l0.115,0.115c0.942,0.098,1.997-0.803,2.848-1.137c2.156-0.848,4.426-1.379,6.713-1.73
		c4.811-0.738,9.707-0.727,14.562-0.724l0.057-0.071v0.069c7.219-0.001,14.447,0.288,21.64,0.915
		c3.724,0.324,7.605,0.568,11.215,1.609c2.249,0.643,4.494,1.306,6.74,1.959l-26.1-37.912c-2.525-3.552-5.684-6.63-10.356-6.428
		v4.62c2.946-0.191,4.822,1.977,6.386,4.184c1.69,2.383,3.4,4.752,5.11,7.122c4.669,6.468,9.391,15.248,14.222,21.596
		c-8.346-1.854-17.131-2.135-25.647-2.255c-8.935-0.126-18.811-0.687-27.14,3.112c-8.329-3.799-18.205-3.238-27.14-3.112
		c-8.516,0.12-17.3,0.401-25.646,2.255l19.19-27.73c1.614-2.175,3.378-5.19,6.446-5.19L39.57,46.189"/>
	<path fill="#FFFFFF" d="M100.599,23.319c7.716,0.015,14.075,6.371,14.087,14.09l0.002,3.727l-0.001,13.674
		c1.567,2.166,3.208,5.602,4.713,7.658V41.137v-3.729c0-10.34-8.46-18.801-18.801-18.801V23.319z"/>
	<path fill="#FFFFFF" d="M113.608,87.998c-2.127,5.104-7.178,8.74-13.009,8.752H44.513v4.711h56.086
		c8.119,0,15.06-5.227,17.675-12.473C116.939,88.682,115.367,88.342,113.608,87.998"/>
	<rect x="60.526" y="21.371" fill="#FFFFFF" width="14.294" height="14.295"/>
	<rect x="69.185" y="44.268" fill="#FFFFFF" width="18.72" height="18.716"/>
	<rect x="71.974" y="4.945" fill="#FFFFFF" width="10.228" height="10.228"/>
	<rect x="51.182" y="42.156" fill="#FFFFFF" width="12.165" height="12.166"/>
	<rect x="45.902" y="28.916" fill="#FFFFFF" width="8.719" height="8.719"/>
	<rect x="60.455" y="2.514" fill="#FFFFFF" width="5.159" height="5.161"/>
	<rect x="50.834" y="16.178" fill="#FFFFFF" width="5.161" height="5.161"/>
</g>
</svg>
