<svg xmlns="http://www.w3.org/2000/svg" width="720" height="105.5" viewBox="0 0 720 105.5"><g fill="#FFF"><path d="M152.806 79.064V18.607h23.28c18.796 0 28.194 10.083 28.194 30.25 0 20.14-9.398 30.208-28.195 30.208h-23.28zm23.28-12.043c10.714-.024 16.085-6.08 16.11-18.164-.025-12.084-5.396-18.126-16.11-18.126h-11.198v36.29h11.197zM210.983 25.072c1.073-1.087 2.523-1.63 4.35-1.63 1.934 0 3.438.543 4.51 1.63 1.075 1.087 1.613 2.438 1.613 4.048 0 1.61-.538 2.953-1.612 4.027-1.073 1.074-2.55 1.612-4.43 1.612s-3.358-.54-4.43-1.613c-1.076-1.074-1.612-2.416-1.612-4.027 0-1.61.536-2.96 1.61-4.048m10.07 13.672h-11.277v40.32h11.278v-40.32zM265.976 39.994v35.848c0 5.64-1.678 10.354-5.034 14.14-3.358 3.788-7.587 5.786-12.688 6l-2.417.24c-7.788-.16-13.83-2.388-18.125-6.685l5.236-6.04c2.954 2.147 6.538 3.356 10.753 3.624 4.297 0 7.204-1.006 8.723-3.02 1.515-2.014 2.274-4.23 2.274-6.646V75.44c-3.007 2.418-6.498 3.625-10.47 3.625-6.178 0-10.81-1.813-13.898-5.437-3.09-3.625-4.632-8.524-4.632-14.702 0-5.906 1.68-10.74 5.035-14.5 3.355-3.76 8.12-5.64 14.298-5.64 4.565.268 7.79 1.492 9.667 3.666v-3.666l11.28 1.208zm-11.28 22.557v-6.524c-.535-4.512-3.355-7.155-8.457-7.934-6.714.24-10.338 3.583-10.875 10.026.267 7.522 3.892 11.415 10.874 11.683 5.1-.804 7.92-3.22 8.457-7.25M273.27 25.072c1.073-1.087 2.523-1.63 4.35-1.63 1.932 0 3.434.543 4.51 1.63 1.072 1.087 1.61 2.438 1.61 4.048 0 1.61-.538 2.953-1.61 4.027-1.076 1.074-2.553 1.612-4.432 1.612-1.878 0-3.355-.54-4.43-1.613-1.073-1.074-1.61-2.416-1.61-4.027 0-1.61.537-2.96 1.61-4.048m10.07 13.672H272.06v40.32h11.278v-40.32zM336.364 79.064H287.99l.037-4.027 28.156-45.112h-28.156l-.038-11.28h48.374v4.434l-28.277 44.705h28.277M339.776 58.926c0-5.906 1.88-10.74 5.64-14.5s8.593-5.64 14.5-5.64 10.607 1.88 14.097 5.64 5.236 8.594 5.236 14.5v4.03h-27.794c.27 2.147 1.21 3.823 2.82 5.033 1.613 1.206 3.49 1.81 5.64 1.81 3.76 0 7.115-1.073 10.07-3.22l6.444 6.443c-2.953 4.03-8.457 6.04-16.514 6.04-5.907 0-10.74-1.88-14.5-5.638-3.76-3.76-5.64-8.59-5.64-14.5m25.78-9.06c-1.61-1.21-3.49-1.815-5.64-1.815-2.15 0-4.026.604-5.638 1.814-1.612 1.208-2.416 2.886-2.416 5.034h16.112c0-2.148-.808-3.826-2.42-5.034M385.56 25.072c1.074-1.087 2.522-1.63 4.35-1.63 1.933 0 3.437.543 4.513 1.63 1.073 1.087 1.61 2.438 1.61 4.048 0 1.61-.537 2.953-1.61 4.027-1.076 1.074-2.554 1.612-4.432 1.612-1.88 0-3.355-.54-4.43-1.613-1.077-1.074-1.612-2.416-1.612-4.027 0-1.61.534-2.96 1.61-4.048m10.072 13.672h-11.278v40.32h11.278v-40.32zM419.887 79.064c-4.566 0-8.19-1.273-10.874-3.824-2.69-2.552-4.03-5.842-4.03-9.87V47.93h-6.04v-9.104h6.04V27.912l11.318-1.208v12.122h6.042v9.103h-6.04v15.83c0 2.148.45 3.658 1.35 4.53.9.874 2.06 1.31 3.483 1.31.43 0 1.438-.174 3.023-.523l2.375 8.096c-1.93 1.262-4.148 1.89-6.646 1.89M452.962 39.914c2.093.913 4.054 2.27 5.88 4.068l-6.282 7.09c-1.828-2.178-4.108-3.264-6.85-3.264-2.712 0-4.524.505-5.437 1.51-.912 1.01-.912 1.92 0 2.74.912.818 2.725 1.496 5.438 2.033 4.002.38 7.278 1.52 9.83 3.425 2.55 1.908 3.827 5.223 3.827 9.95 0 3.812-1.506 6.767-4.51 8.86-3.01 2.096-6.514 3.143-10.516 3.143-3.812 0-6.985-.545-9.525-1.63-2.538-1.09-4.717-2.546-6.544-4.372l6.243-7.05c1.827 2.175 4.66 3.44 8.498 3.785 3.09 0 5.083-.5 5.98-1.508.903-1.006 1.036-2.014.407-3.02-.63-1.01-2.76-1.685-6.387-2.034-3.275-.377-6.277-1.383-9.002-3.02s-4.086-4.726-4.086-9.266c0-4.16 1.548-7.336 4.648-9.525 3.102-2.188 6.29-3.282 9.567-3.282 3.79 0 6.728.456 8.825 1.37M468.09 74.03c-4.03-3.355-6.04-7.72-6.04-13.09v-4.026c0-5.37 2.01-9.735 6.04-13.092 4.027-3.357 8.74-5.036 14.137-5.036 6.443 0 11.803 2.284 16.073 6.848l-8.056 6.042c-2.418-2.416-5.103-3.625-8.057-3.625-2.688 0-5.035 1.076-7.05 3.224-2.015 2.148-3.02 4.7-3.02 7.652 0 2.955.94 5.504 2.82 7.654 1.88 2.146 4.295 3.22 7.25 3.22 2.954 0 5.64-1.208 8.057-3.624l8.056 6.043c-4.298 4.563-9.67 6.845-16.112 6.845-5.372 0-10.07-1.678-14.098-5.036M513.335 51.838v27.227h-11.28V18.647h11.28v23.765c2.71-2.418 5.935-3.626 9.665-3.626 5.104 0 8.998 1.545 11.684 4.632 2.684 3.088 4.027 6.647 4.027 10.674v24.973h-11.277V56.913c0-2.687-.67-4.77-2.014-6.244-1.344-1.48-3.37-2.257-6.083-2.338-2.337.16-4.337 1.33-6.002 3.506M555.354 43.217c2.87-2.954 6.378-4.43 10.514-4.43 1.316 0 2.563.108 3.746.32l-1.773 11.12c-1.315-1.182-3.196-1.814-5.64-1.895-2.736.188-5.02 2.176-6.846 5.96v24.772h-11.278V39.956l11.278-1.212v4.473zM574.066 25.072c1.072-1.087 2.522-1.63 4.35-1.63 1.934 0 3.437.543 4.512 1.63 1.072 1.087 1.61 2.438 1.61 4.048 0 1.61-.538 2.953-1.61 4.027-1.074 1.074-2.553 1.612-4.43 1.612-1.883 0-3.36-.54-4.432-1.613-1.074-1.074-1.612-2.416-1.612-4.027 0-1.61.538-2.96 1.612-4.048m10.07 13.672H572.86v40.32h11.277v-40.32zM604.354 46.842v32.223h-11.317V46.842h-6.045V37.74h6.045v-5.397c0-4.028 1.342-7.318 4.028-9.87 2.68-2.55 6.31-3.826 10.87-3.826 4.837 0 8.596 1.344 11.28 4.028l-6.003 6.687c-.75-.833-2.092-1.25-4.027-1.25-1.422 0-2.582.437-3.48 1.31-.904.872-1.35 2.383-1.35 4.53v3.788"/><path d="M629.325 79.064c-4.564 0-8.19-1.273-10.874-3.824-2.687-2.552-4.027-5.842-4.027-9.87V46.85h-25.916v-9.102h25.916v-1.524l11.315-11.158v12.682h6.043v9.102h-6.042V63.76c0 2.148.453 3.658 1.35 4.53.902.874 2.063 1.31 3.486 1.31.43 0 1.436-.174 3.02-.523l2.376 8.096c-1.93 1.262-4.145 1.89-6.645 1.89M636.015 58.926c0-5.906 1.877-10.74 5.64-14.5 3.758-3.76 8.592-5.64 14.502-5.64 5.906 0 10.604 1.88 14.095 5.64 3.49 3.76 5.237 8.594 5.237 14.5v4.03h-27.796c.27 2.147 1.21 3.823 2.823 5.033 1.61 1.206 3.49 1.81 5.64 1.81 3.758 0 7.113-1.073 10.067-3.22l6.446 6.443c-2.955 4.03-8.46 6.04-16.514 6.04-5.91 0-10.744-1.88-14.502-5.638-3.762-3.76-5.64-8.59-5.64-14.5m25.777-9.06c-1.607-1.21-3.49-1.815-5.634-1.815-2.15 0-4.03.604-5.64 1.814-1.614 1.208-2.42 2.886-2.42 5.034h16.112c0-2.148-.804-3.826-2.417-5.034M692.104 53.447v25.617h-11.278V39.956l11.278-1.21v3.667c2.715-2.42 5.937-3.627 9.667-3.627 5.105 0 9 1.545 11.684 4.633s4.026 6.646 4.026 10.672v24.973h-11.277v-22.15c0-2.688-.67-4.77-2.014-6.245-1.343-1.48-3.37-2.256-6.083-2.337-2.337.16-4.337 1.867-6.003 5.114M272.298 101.46V88.73h4.904c3.958 0 5.938 2.122 5.938 6.37 0 4.24-1.98 6.36-5.938 6.36h-4.904zm4.904-2.534c2.256-.006 3.387-1.283 3.393-3.826-.006-2.545-1.137-3.817-3.393-3.817h-2.358v7.644h2.358zM283.986 101.46l5.09-12.726h2.545l5.083 12.718-2.706.01-.765-1.95h-5.77l-.76 1.95h-2.716zm6.43-9.33l-1.933 4.837h3.816l-1.883-4.838zM305.165 89.16c.65.283 1.26.707 1.824 1.272l-1.697 1.696c-.566-.678-1.358-1.018-2.376-1.018-1.018 0-1.668.242-1.95.72-.282.482-.282.893 0 1.232.282.34.932.593 1.95.762 1.076.113 2.05.468 2.926 1.062.878.595 1.315 1.54 1.315 2.842 0 1.02-.468 1.896-1.405 2.628-.934.737-2.025 1.104-3.27 1.104-1.18 0-2.168-.17-2.96-.508-.792-.342-1.47-.79-2.034-1.357l1.693-1.697c.568.678 1.528 1.075 2.886 1.188 1.13 0 1.836-.24 2.116-.72.278-.48.278-.963 0-1.44-.28-.484-.985-.78-2.117-.893-1.018-.113-1.952-.426-2.8-.934-.85-.51-1.273-1.388-1.273-2.63 0-1.127.48-2.03 1.446-2.71.966-.683 1.956-1.026 2.972-1.026 1.184 0 2.1.145 2.75.426M315.196 101.46V88.73h4.903c3.958 0 5.937 2.122 5.937 6.37 0 4.24-1.98 6.36-5.938 6.36h-4.904zm4.903-2.534c2.255-.006 3.388-1.283 3.392-3.826-.004-2.545-1.137-3.817-3.393-3.817h-2.358v7.644h2.357zM328.406 101.46V88.745l9.348-.01v2.377h-6.802v2.715h5.098v2.368h-5.098v2.892h6.786v2.376M342.22 88.734v7.38c0 .966.282 1.67.85 2.124.564.45 1.27.68 2.12.68.85 0 1.554-.23 2.12-.68.566-.453.848-1.158.848-2.123v-7.38h2.545v8.06c0 1.3-.523 2.406-1.57 3.31-1.045.905-2.36 1.356-3.944 1.356s-2.9-.45-3.945-1.354c-1.047-.904-1.57-2.01-1.57-3.31v-8.062h2.545zM363.327 88.734v2.377h-4.243v10.35h-2.546V91.11h-4.24v-2.376M371.756 89.16c.648.283 1.258.707 1.822 1.272l-1.696 1.696c-.565-.678-1.356-1.018-2.374-1.018-1.02 0-1.67.242-1.952.72-.28.482-.28.893 0 1.232.282.34.933.593 1.952.762 1.072.113 2.05.468 2.928 1.062.874.595 1.313 1.54 1.313 2.842 0 1.02-.47 1.896-1.405 2.628-.938.737-2.023 1.104-3.268 1.104-1.184 0-2.172-.17-2.963-.508-.79-.342-1.468-.79-2.035-1.357l1.693-1.697c.568.678 1.528 1.075 2.886 1.188 1.13 0 1.835-.24 2.116-.72.28-.48.28-.963 0-1.44-.28-.484-.986-.78-2.117-.893-1.02-.113-1.952-.426-2.8-.934-.847-.51-1.273-1.388-1.273-2.63 0-1.127.48-2.03 1.447-2.71.965-.683 1.955-1.026 2.974-1.026 1.18 0 2.098.145 2.748.426M376.833 99.633c-1.22-1.212-1.827-2.732-1.827-4.56.006-1.787.617-3.29 1.833-4.507 1.214-1.22 2.72-1.832 4.52-1.832 1.815 0 3.373.568 4.674 1.7l-1.696 1.856c-.864-.68-1.858-1.016-2.978-1.016-1.14.002-2.06.36-2.76 1.066-.7.707-1.05 1.613-1.05 2.715.007 1.182.36 2.12 1.06 2.816.702.696 1.625 1.046 2.767 1.046 1.144 0 2.13-.338 2.96-1.01l1.697 1.855c-1.295 1.134-2.853 1.698-4.674 1.698-1.8-.002-3.306-.612-4.527-1.825M387.99 101.46V88.735h2.544v5.09h5.928V88.73h2.546v12.722l-2.546.01V96.2h-5.928v5.26M401.64 101.46V88.745l9.345-.01v2.377h-6.802v2.715h5.1v2.368h-5.1v2.892h6.786v2.376M419.313 101.46V88.73h4.903c3.956 0 5.938 2.122 5.938 6.37 0 4.24-1.982 6.36-5.938 6.36h-4.903zm4.903-2.534c2.256-.006 3.386-1.283 3.394-3.826-.008-2.545-1.138-3.817-3.394-3.817h-2.357v7.644h2.356zM432.53 88.73h2.534v12.73h-2.535zM438.747 99.633c-1.216-1.212-1.825-2.732-1.825-4.56.004-1.787.615-3.29 1.83-4.507 1.215-1.22 2.724-1.832 4.522-1.832 1.817 0 3.373.568 4.674 1.7l-1.694 1.856c-.866-.68-1.86-1.016-2.98-1.016-1.14.002-2.064.36-2.76 1.066-.7.707-1.046 1.613-1.046 2.715.005 1.182.357 2.12 1.06 2.816.7.696 1.622 1.046 2.764 1.046.917 0 1.618-.182 2.114-.545v-2.18l-1.698.01v-2.377h4.24v5.938c-1.294 1.134-2.85 1.698-4.673 1.698-1.8-.002-3.308-.612-4.528-1.825M450.434 88.73h2.54v12.73h-2.54zM465.502 88.734v2.377h-4.24v10.35h-2.546V91.11h-4.242v-2.376M464.643 101.46l5.088-12.726h2.548l5.078 12.718-2.705.01-.763-1.95h-5.766l-.763 1.95h-2.714zm6.43-9.33l-1.937 4.837h3.818l-1.88-4.838zM481.408 88.734v10.352h6.787v2.375h-9.334V88.735M489.764 101.46V88.745l9.345-.01v2.377h-6.804v2.715h5.097v2.368h-5.097v2.892h6.786v2.376M517.41 101.46h-10.187l.006-.85 5.93-9.5h-5.93l-.007-2.376h10.187v.936l-5.954 9.415h5.954M519.514 101.46V88.745l9.346-.01v2.377h-6.8v2.715h5.097v2.368h-5.098v2.892h6.782v2.376M531.148 88.73h2.54v12.73h-2.54zM546.22 88.734v2.377h-4.243v10.35h-2.544V91.11h-4.242v-2.376M554.648 89.16c.65.283 1.256.707 1.822 1.272l-1.696 1.696c-.566-.678-1.358-1.018-2.378-1.018-1.016 0-1.668.242-1.95.72-.28.482-.28.893 0 1.232.282.34.935.593 1.95.762 1.074.113 2.055.468 2.93 1.062.875.595 1.314 1.54 1.314 2.842 0 1.02-.467 1.896-1.402 2.628-.938.737-2.028 1.104-3.273 1.104-1.182 0-2.166-.17-2.96-.508-.79-.342-1.47-.79-2.036-1.357l1.698-1.697c.563.678 1.527 1.075 2.883 1.188 1.13 0 1.837-.24 2.116-.72.28-.48.28-.963 0-1.44-.28-.484-.986-.78-2.115-.893-1.017-.113-1.952-.426-2.8-.934-.848-.51-1.27-1.388-1.27-2.63 0-1.127.48-2.03 1.444-2.71.963-.683 1.955-1.026 2.977-1.026 1.18 0 2.096.145 2.748.426M559.725 99.633c-1.22-1.212-1.826-2.732-1.826-4.56.003-1.787.614-3.29 1.83-4.507 1.216-1.22 2.723-1.832 4.52-1.832 1.818 0 3.376.568 4.675 1.7l-1.694 1.856c-.863-.68-1.857-1.016-2.978-1.016-1.14.002-2.06.36-2.762 1.066-.697.707-1.047 1.613-1.047 2.715.008 1.182.36 2.12 1.06 2.816.704.696 1.626 1.046 2.767 1.046 1.145 0 2.13-.338 2.962-1.01l1.694 1.855c-1.293 1.134-2.85 1.698-4.674 1.698-1.8-.002-3.307-.612-4.527-1.825M570.88 101.46V88.735h2.547v5.09h5.928V88.73h2.544v12.722l-2.545.01V96.2h-5.928v5.26M592.2 95.912l3.175 5.55h-2.918l-3.047-5.26h-2.322v5.26h-2.547V88.733h5.55c2.97 0 4.455 1.225 4.455 3.667 0 1.838-.78 3.008-2.344 3.512m-5.112-2.087h3.563c1.024-.017 1.55-.48 1.58-1.397-.03-.838-.546-1.273-1.552-1.307h-3.59v2.705zM596.7 88.73h2.534v12.73H596.7zM601.78 101.46V88.735h8.95v2.377h-6.405v2.715h4.723v2.368h-4.723v5.268M622.904 88.734v2.377h-4.242v10.35h-2.544V91.11h-4.242v-2.376M624.37 101.46V88.745l9.348-.01v2.377h-6.804v2.715h5.1v2.368h-5.1v2.892h6.785v2.376M635.955 101.46V88.735h.848l7.972 7.977v-7.976h2.547v12.727h-.934l-7.89-7.888v7.89M648.846 101.46l5.092-12.726h2.545l5.08 12.718-2.705.01-.764-1.95h-5.768l-.764 1.95h-2.716zm6.432-9.33l-1.937 4.837h3.82l-1.882-4.838zM670.713 95.912l3.17 5.55h-2.916l-3.045-5.26h-2.324v5.26h-2.545V88.733h5.547c2.97 0 4.453 1.225 4.453 3.667 0 1.838-.78 3.008-2.34 3.512m-5.115-2.087h3.56c1.025-.017 1.552-.48 1.58-1.397-.028-.838-.547-1.273-1.553-1.307h-3.587v2.705zM676.21 99.633c-1.22-1.212-1.827-2.732-1.827-4.56.004-1.787.613-3.29 1.83-4.507 1.217-1.22 2.724-1.832 4.522-1.832 1.816 0 3.373.568 4.674 1.7l-1.697 1.856c-.864-.68-1.856-1.016-2.978-1.016-1.142.002-2.06.36-2.763 1.066-.696.707-1.047 1.613-1.047 2.715.01 1.182.36 2.12 1.062 2.816s1.623 1.046 2.767 1.046 2.128-.338 2.96-1.01l1.695 1.855c-1.296 1.134-2.853 1.698-4.675 1.698-1.798-.002-3.306-.612-4.526-1.825M687.365 101.46V88.735h2.544v5.09h5.93V88.73h2.544v12.722l-2.544.01V96.2h-5.93v5.26M701.02 88.73h2.538v12.73h-2.537zM707.702 88.734l3.614 9.327 3.68-9.326h2.714l-5.08 12.727h-2.545l-5.1-12.726M39.57 46.19l.673.078v-4.676c-5.484-.217-8.492 3.91-11.428 7.845L3.197 85.93c3.892-1.13 7.692-2.37 11.72-2.902C24.13 81.815 33.5 81.45 42.785 81.45c7.796.01 16.473-.3 23.565 3.477l.115.115c.942.098 1.997-.803 2.848-1.137 2.156-.848 4.426-1.38 6.713-1.73 4.81-.738 9.707-.727 14.562-.724l.057-.07v.07c7.22-.002 14.447.287 21.64.914 3.724.324 7.605.568 11.215 1.61 2.25.642 4.494 1.305 6.74 1.958l-26.1-37.912c-2.525-3.552-5.684-6.63-10.356-6.428v4.62c2.946-.19 4.822 1.977 6.386 4.184 1.69 2.383 3.4 4.752 5.11 7.122 4.67 6.468 9.39 15.248 14.222 21.596-8.346-1.854-17.13-2.135-25.647-2.255-8.935-.127-18.81-.688-27.14 3.11-8.33-3.798-18.205-3.237-27.14-3.11-8.516.12-17.3.4-25.646 2.254l19.19-27.73c1.613-2.175 3.377-5.19 6.445-5.19l.005-.005M100.6 23.32c7.715.014 14.074 6.37 14.086 14.09l.002 3.726V54.81c1.566 2.166 3.207 5.602 4.712 7.658v-25.06c0-10.34-8.46-18.8-18.8-18.8v4.71zM113.608 87.998c-2.127 5.104-7.178 8.74-13.01 8.752H44.514v4.71H100.6c8.118 0 15.06-5.226 17.674-12.472-1.335-.306-2.907-.646-4.666-.99M60.526 21.37H74.82v14.296H60.526z"/><path d="M69.185 44.268h18.72v18.716h-18.72zM71.974 4.945h10.228v10.228H71.974zM51.182 42.156h12.165v12.166H51.182zM45.902 28.916h8.72v8.72H45.9zM60.455 2.514h5.16v5.16h-5.16zM50.834 16.178h5.16v5.16h-5.16z"/></g></svg>