<?xml version="1.0" encoding="utf-8"?>
<!-- Generator: Adobe Illustrator 15.0.0, SVG Export Plug-In . SVG Version: 6.00 Build 0)  -->
<!DOCTYPE svg PUBLIC "-//W3C//DTD SVG 1.1//EN" "http://www.w3.org/Graphics/SVG/1.1/DTD/svg11.dtd">
<svg version="1.1" id="Ebene_1" xmlns="http://www.w3.org/2000/svg" xmlns:xlink="http://www.w3.org/1999/xlink" x="0px" y="0px"
	 width="1200px" height="50px" viewBox="0 0 1200 50" enable-background="new 0 0 1200 50" xml:space="preserve">
<g id="png" display="none">
	
		<image display="inline" overflow="visible" enable-background="new    " width="950" height="59" xlink:href="7349F5D2.png"  transform="matrix(1 0 0 1 52 0)">
	</image>
</g>
<g id="Ebene_2">
	<g>
		
			<linearGradient id="SVGID_1_" gradientUnits="userSpaceOnUse" x1="591.6606" y1="26.04" x2="591.6606" y2="2.535" gradientTransform="matrix(-1 0 0 1 1191.6602 22.959)">
			<stop  offset="0" style="stop-color:#666666;stop-opacity:0"/>
			<stop  offset="1" style="stop-color:#666666"/>
		</linearGradient>
		<path fill="url(#SVGID_1_)" d="M688,9.999H0v39h1200v-43l0,0v4h-100c-103,0-111,26-111,26S997,9.999,688,9.999z"/>
	</g>
	<g>
		
			<image overflow="visible" opacity="0.16" enable-background="new    " width="1230" height="71" xlink:href="7349F5D6.png"  transform="matrix(-1 0 0 -1 1215 60)">
		</image>
		<g>
			<path fill="#FFFFFF" d="M1100,13.999c-103,0-111,26-111,26s8-26-301-26H0v-15h688c300.938,0,301,21,301,21s13-21,111-21h100v15
				H1100z"/>
		</g>
	</g>
</g>
</svg>
